<svg width="250" height="160" viewBox="0 0 250 160" fill="none" xmlns="http://www.w3.org/2000/svg">
<path opacity="0.3" d="M48.4599 14.9213C23.145 24.7238 4.35998 49.5679 0.624242 79.6285C-2.49647 104.959 4.95982 132.946 48.8547 140.919C134.26 156.439 222.301 158.254 242.718 116.394C263.136 74.5336 235.194 7.50293 191.845 2.86363C157.449 -0.826546 97.9129 -4.2206 48.4599 14.9213Z" fill="white"/>
<path d="M156.789 9.06689H92.8104C88.7972 9.06689 85.5439 12.3202 85.5439 16.3334V137.244C85.5439 141.257 88.7972 144.51 92.8104 144.51H156.789C160.802 144.51 164.055 141.257 164.055 137.244V16.3334C164.055 12.3202 160.802 9.06689 156.789 9.06689Z" fill="#333333"/>
<path opacity="0.03" d="M124.799 140.372C127.94 140.372 130.487 137.826 130.487 134.685C130.487 131.544 127.94 128.998 124.799 128.998C121.659 128.998 119.112 131.544 119.112 134.685C119.112 137.826 121.659 140.372 124.799 140.372Z" fill="#333333"/>
<path d="M156.394 20.8208H93.1978V126.279H156.394V20.8208Z" fill="#EFEBFF"/>
<path opacity="0.03" d="M117.563 120.008C118.704 120.008 119.629 119.083 119.629 117.943C119.629 116.802 118.704 115.877 117.563 115.877C116.423 115.877 115.498 116.802 115.498 117.943C115.498 119.083 116.423 120.008 117.563 120.008Z" fill="#333333"/>
<path opacity="0.44" d="M124.8 120.008C125.94 120.008 126.865 119.083 126.865 117.943C126.865 116.802 125.94 115.877 124.8 115.877C123.659 115.877 122.734 116.802 122.734 117.943C122.734 119.083 123.659 120.008 124.8 120.008Z" fill="white"/>
<path opacity="0.03" d="M132.036 120.008C133.176 120.008 134.101 119.083 134.101 117.943C134.101 116.802 133.176 115.877 132.036 115.877C130.895 115.877 129.97 116.802 129.97 117.943C129.97 119.083 130.895 120.008 132.036 120.008Z" fill="#333333"/>
<path opacity="0.03" d="M147.966 32.4531H101.633V72.0049H147.966V32.4531Z" fill="#333333"/>
<path opacity="0.03" d="M134.139 79.6284H101.633V83.2503H134.139V79.6284Z" fill="#333333"/>
<path opacity="0.03" d="M147.966 79.6284H136.333V83.2503H147.966V79.6284Z" fill="#333333"/>
<path opacity="0.03" d="M116.819 90.7368H101.633V94.3587H116.819V90.7368Z" fill="#333333"/>
<path opacity="0.03" d="M147.966 90.7368H120.046V94.3587H147.966V90.7368Z" fill="#333333"/>
<path opacity="0.03" d="M136.72 101.853H101.633V105.475H136.72V101.853Z" fill="#333333"/>
<path d="M78.4218 20.8208H15.2256V126.279H78.4218V20.8208Z" fill="#EFEBFF"/>
<path opacity="0.44" d="M39.5912 120.008C40.7318 120.008 41.6565 119.083 41.6565 117.943C41.6565 116.802 40.7318 115.877 39.5912 115.877C38.4505 115.877 37.5259 116.802 37.5259 117.943C37.5259 119.083 38.4505 120.008 39.5912 120.008Z" fill="white"/>
<path opacity="0.03" d="M46.8275 120.008C47.9681 120.008 48.8928 119.083 48.8928 117.943C48.8928 116.802 47.9681 115.877 46.8275 115.877C45.6869 115.877 44.7622 116.802 44.7622 117.943C44.7622 119.083 45.6869 120.008 46.8275 120.008Z" fill="#333333"/>
<path opacity="0.03" d="M54.0633 120.008C55.204 120.008 56.1286 119.083 56.1286 117.943C56.1286 116.802 55.204 115.877 54.0633 115.877C52.9227 115.877 51.998 116.802 51.998 117.943C51.998 119.083 52.9227 120.008 54.0633 120.008Z" fill="#333333"/>
<path opacity="0.03" d="M69.9934 32.4531H23.6611V72.0049H69.9934V32.4531Z" fill="#333333"/>
<path opacity="0.03" d="M56.1666 79.6284H23.6611V83.2503H56.1666V79.6284Z" fill="#333333"/>
<path opacity="0.03" d="M69.9937 79.6284H58.3613V83.2503H69.9937V79.6284Z" fill="#333333"/>
<path opacity="0.03" d="M38.8471 90.7368H23.6611V94.3587H38.8471V90.7368Z" fill="#333333"/>
<path opacity="0.03" d="M69.9935 90.7368H42.0742V94.3587H69.9935V90.7368Z" fill="#333333"/>
<path opacity="0.03" d="M58.7482 101.853H23.6611V105.475H58.7482V101.853Z" fill="#333333"/>
<path d="M234.366 20.8208H171.17V126.279H234.366V20.8208Z" fill="#EFEBFF"/>
<path opacity="0.03" d="M195.536 120.008C196.676 120.008 197.601 119.083 197.601 117.943C197.601 116.802 196.676 115.877 195.536 115.877C194.395 115.877 193.47 116.802 193.47 117.943C193.47 119.083 194.395 120.008 195.536 120.008Z" fill="#333333"/>
<path opacity="0.03" d="M202.771 120.008C203.912 120.008 204.837 119.083 204.837 117.943C204.837 116.802 203.912 115.877 202.771 115.877C201.631 115.877 200.706 116.802 200.706 117.943C200.706 119.083 201.631 120.008 202.771 120.008Z" fill="#333333"/>
<path opacity="0.44" d="M210.008 120.008C211.148 120.008 212.073 119.083 212.073 117.943C212.073 116.802 211.148 115.877 210.008 115.877C208.867 115.877 207.942 116.802 207.942 117.943C207.942 119.083 208.867 120.008 210.008 120.008Z" fill="white"/>
<path opacity="0.03" d="M225.938 32.4531H179.605V72.0049H225.938V32.4531Z" fill="#333333"/>
<path opacity="0.03" d="M212.111 79.6284H179.605V83.2503H212.111V79.6284Z" fill="#333333"/>
<path opacity="0.03" d="M225.938 79.6284H214.305V83.2503H225.938V79.6284Z" fill="#333333"/>
<path opacity="0.03" d="M194.791 90.7368H179.605V94.3587H194.791V90.7368Z" fill="#333333"/>
<path opacity="0.03" d="M225.946 90.7368H198.026V94.3587H225.946V90.7368Z" fill="#333333"/>
<path opacity="0.03" d="M214.693 101.853H179.605V105.475H214.693V101.853Z" fill="#333333"/>
<path opacity="0.1" d="M146.364 144.541C146.364 143.781 144.754 112.65 145.786 108.018C146.819 103.387 156.295 80.7445 153.797 78.1022C151.299 75.4598 142.149 81.4735 142.149 81.4735C142.149 81.4735 143.82 54.2071 139.872 52.2633C135.923 50.3195 134.169 57.9353 134.169 57.9353L132.066 88.4362L121.648 144.396L146.364 144.541Z" fill="#333333"/>
<path d="M139.325 112.795C140.654 107.48 142.651 102.294 143.926 96.9253C144.769 93.3718 150.221 78.52 151.747 74.1465C152.218 72.8025 152.62 71.1776 151.709 70.0842C151.402 69.7645 151.018 69.5274 150.595 69.3947C150.172 69.262 149.722 69.238 149.287 69.3249C148.409 69.5081 147.6 69.9313 146.948 70.5474C145.43 71.8838 142.628 78.4972 140.578 78.4896C138.095 78.4896 139.264 71.656 139.196 70.3424C138.915 64.6856 139.333 57.4343 137.123 52.1193C135.483 48.1709 131.413 48.7024 130.456 52.9697C129.5 57.2369 129.538 75.1184 129.538 75.1184C129.538 75.1184 113.653 72.3925 110.942 77.2368C108.232 82.0811 112.81 112.855 112.81 112.855L139.325 112.795Z" fill="#F4A28C"/>
<path d="M141.261 160L140.973 111.094L111.292 104.579L99.3403 160H141.261Z" fill="#633CFF"/>
<path opacity="0.1" d="M141.261 160L140.973 111.094L126.804 107.98L124.268 160H141.261Z" fill="#333333"/>
</svg>
