<svg width="325" height="325" viewBox="0 0 325 325" fill="none" xmlns="http://www.w3.org/2000/svg">
<path fill-rule="evenodd" clip-rule="evenodd" d="M23.7867 301.187C47.6026 324.997 85.8855 324.997 162.471 324.997C239.066 324.997 277.358 324.997 301.145 301.187C324.951 277.417 324.951 239.099 324.951 162.494C324.951 85.8878 324.951 47.5898 301.145 23.79C277.378 0 239.066 0 162.471 0C85.8757 0 47.5831 0 23.7867 23.79C0 47.6093 0 85.8975 0 162.494C0 239.099 0 277.397 23.7867 301.187ZM121.858 109.678C111.416 109.678 101.208 112.775 92.5256 118.576C83.8431 124.378 77.0758 132.625 73.0793 142.274C69.0828 151.922 68.0367 162.539 70.0731 172.782C72.1096 183.025 77.1372 192.434 84.5202 199.82C91.9033 207.205 101.31 212.235 111.551 214.274C121.793 216.313 132.408 215.268 142.056 211.273C151.704 207.278 159.951 200.511 165.754 191.828C171.556 183.146 174.655 172.937 174.657 162.494C174.657 159.261 175.94 156.161 178.226 153.876C180.511 151.59 183.61 150.306 186.842 150.306C190.074 150.306 193.174 151.59 195.459 153.876C197.744 156.161 199.028 159.261 199.028 162.494C199.03 177.761 194.505 192.687 186.025 205.382C177.545 218.078 165.491 227.973 151.388 233.816C137.285 239.66 121.766 241.189 106.794 238.211C91.8212 235.233 78.0681 227.881 67.2737 217.085C56.4793 206.289 49.1284 192.534 46.1508 177.56C43.1731 162.586 44.7023 147.064 50.5451 132.959C56.3878 118.854 66.2817 106.799 78.9754 98.3174C91.669 89.8363 106.592 85.3106 121.858 85.3125C125.09 85.3125 128.189 86.5965 130.475 88.8821C132.76 91.1677 134.044 94.2677 134.044 97.5C134.044 100.732 132.76 103.832 130.475 106.118C128.189 108.403 125.09 109.678 121.858 109.678ZM255.902 162.494C255.902 169.429 254.536 176.297 251.882 182.705C249.228 189.113 245.338 194.935 240.434 199.84C235.531 204.744 229.709 208.635 223.302 211.289C216.895 213.943 210.028 215.309 203.093 215.309C199.861 215.309 196.762 216.593 194.477 218.879C192.191 221.164 190.907 224.264 190.907 227.497C190.907 230.729 192.191 233.829 194.477 236.115C196.762 238.4 199.861 239.684 203.093 239.684C218.358 239.684 233.28 235.157 245.972 226.675C258.664 218.193 268.557 206.138 274.398 192.033C280.24 177.928 281.768 162.408 278.79 147.434C275.812 132.461 268.462 118.707 257.668 107.911C246.874 97.1161 233.122 89.7644 218.15 86.7859C203.179 83.8075 187.661 85.3362 173.558 91.1786C159.455 97.0209 147.401 106.915 138.921 119.609C130.44 132.303 125.913 147.227 125.913 162.494C125.913 165.726 127.197 168.826 129.482 171.111C131.768 173.397 134.867 174.681 138.099 174.681C141.331 174.681 144.431 173.397 146.716 171.111C149.001 168.826 150.285 165.726 150.285 162.494C150.285 148.486 155.849 135.052 165.752 125.147C175.656 115.242 189.088 109.678 203.093 109.678C217.099 109.678 230.531 115.242 240.434 125.147C250.338 135.052 255.902 148.486 255.902 162.494Z" fill="#633CFF"/>
</svg>
