<svg width="1281" height="325" viewBox="0 0 1281 325" fill="none" xmlns="http://www.w3.org/2000/svg">
<path d="M425.151 235V212.4L427.151 212.8C425.818 220.133 421.818 226 415.151 230.4C408.618 234.8 400.751 237 391.551 237C382.218 237 374.085 234.867 367.151 230.6C360.351 226.2 355.085 220.067 351.351 212.2C347.618 204.333 345.751 195.067 345.751 184.4C345.751 173.6 347.685 164.2 351.551 156.2C355.418 148.2 360.818 142 367.751 137.6C374.818 133.2 383.018 131 392.351 131C402.085 131 409.951 133.267 415.951 137.8C422.085 142.333 425.685 148.533 426.751 156.4L424.551 156.6V91H454.551V235H425.151ZM401.151 213C408.218 213 413.951 210.533 418.351 205.6C422.751 200.533 424.951 193.333 424.951 184C424.951 174.667 422.685 167.533 418.151 162.6C413.751 157.533 407.951 155 400.751 155C393.818 155 388.085 157.533 383.551 162.6C379.151 167.667 376.951 174.867 376.951 184.2C376.951 193.533 379.151 200.667 383.551 205.6C388.085 210.533 393.951 213 401.151 213ZM478.537 235V133H508.537V235H478.537ZM477.537 119.4V87H509.537V119.4H477.537ZM573.057 237C558.124 237 546.257 234 537.457 228C528.657 222 523.857 213.733 523.057 203.2H549.857C550.524 207.733 552.791 211.2 556.657 213.6C560.657 215.867 566.124 217 573.057 217C579.324 217 583.857 216.133 586.657 214.4C589.591 212.533 591.057 209.933 591.057 206.6C591.057 204.067 590.191 202.133 588.457 200.8C586.857 199.333 583.857 198.133 579.457 197.2L563.057 193.8C550.924 191.267 541.991 187.467 536.257 182.4C530.524 177.2 527.657 170.533 527.657 162.4C527.657 152.533 531.457 144.867 539.057 139.4C546.657 133.8 557.257 131 570.857 131C584.324 131 595.057 133.733 603.057 139.2C611.057 144.533 615.457 152 616.257 161.6H589.457C588.924 158.133 587.057 155.533 583.857 153.8C580.657 151.933 576.124 151 570.257 151C564.924 151 560.924 151.8 558.257 153.4C555.724 154.867 554.457 157 554.457 159.8C554.457 162.2 555.524 164.133 557.657 165.6C559.791 166.933 563.324 168.133 568.257 169.2L586.657 173C596.924 175.133 604.657 179.133 609.857 185C615.191 190.733 617.857 197.533 617.857 205.4C617.857 215.4 613.924 223.2 606.057 228.8C598.324 234.267 587.324 237 573.057 237ZM682.159 237C671.492 237 662.092 234.733 653.959 230.2C645.826 225.667 639.426 219.4 634.759 211.4C630.226 203.4 627.959 194.267 627.959 184C627.959 173.733 630.226 164.6 634.759 156.6C639.426 148.6 645.826 142.333 653.959 137.8C662.092 133.267 671.492 131 682.159 131C691.092 131 699.092 132.667 706.159 136C713.359 139.2 719.226 143.667 723.759 149.4C728.426 155.133 731.426 161.867 732.759 169.6H703.759C702.292 164.667 699.626 160.933 695.759 158.4C692.026 155.867 687.626 154.6 682.559 154.6C677.759 154.6 673.559 155.8 669.959 158.2C666.492 160.6 663.826 164 661.959 168.4C660.092 172.8 659.159 178 659.159 184C659.159 190 660.092 195.2 661.959 199.6C663.826 204 666.492 207.4 669.959 209.8C673.559 212.2 677.759 213.4 682.559 213.4C687.626 213.4 692.026 212.133 695.759 209.6C699.626 207.067 702.292 203.333 703.759 198.4H732.759C731.426 206.133 728.426 212.867 723.759 218.6C719.226 224.333 713.359 228.867 706.159 232.2C699.092 235.4 691.092 237 682.159 237ZM796.078 237C784.878 237 775.011 234.8 766.478 230.4C758.078 225.867 751.478 219.6 746.678 211.6C742.011 203.467 739.678 194.133 739.678 183.6C739.678 173.067 742.011 163.867 746.678 156C751.478 148.133 758.078 142 766.478 137.6C775.011 133.2 784.878 131 796.078 131C807.411 131 817.278 133.2 825.678 137.6C834.211 142 840.811 148.133 845.478 156C850.144 163.867 852.478 173.067 852.478 183.6C852.478 194.133 850.078 203.467 845.278 211.6C840.611 219.6 834.011 225.867 825.478 230.4C817.078 234.8 807.278 237 796.078 237ZM796.078 213.4C800.744 213.4 804.944 212.2 808.678 209.8C812.544 207.4 815.611 204 817.878 199.6C820.144 195.067 821.278 189.667 821.278 183.4C821.278 174.2 818.811 167.133 813.878 162.2C809.078 157.133 803.144 154.6 796.078 154.6C789.011 154.6 783.011 157.133 778.078 162.2C773.278 167.267 770.878 174.333 770.878 183.4C770.878 189.667 772.011 195.067 774.278 199.6C776.544 204 779.544 207.4 783.278 209.8C787.144 212.2 791.411 213.4 796.078 213.4ZM893.056 235L852.856 133H885.056L916.456 228.2H899.656L930.856 133H962.256L922.056 235H893.056ZM1018.72 237C1007.39 237 997.525 234.8 989.125 230.4C980.725 225.867 974.191 219.6 969.525 211.6C964.991 203.6 962.725 194.4 962.725 184C962.725 173.467 964.991 164.267 969.525 156.4C974.191 148.4 980.658 142.2 988.925 137.8C997.191 133.267 1006.79 131 1017.72 131C1028.26 131 1037.39 133.133 1045.12 137.4C1052.86 141.667 1058.86 147.6 1063.12 155.2C1067.39 162.8 1069.52 171.733 1069.52 182C1069.52 184.133 1069.46 186.133 1069.32 188C1069.19 189.733 1068.99 191.4 1068.72 193H980.325V173.2H1044.52L1039.32 176.8C1039.32 168.533 1037.32 162.467 1033.32 158.6C1029.46 154.6 1024.12 152.6 1017.32 152.6C1009.46 152.6 1003.32 155.267 998.925 160.6C994.658 165.933 992.525 173.933 992.525 184.6C992.525 195 994.658 202.733 998.925 207.8C1003.32 212.867 1009.86 215.4 1018.52 215.4C1023.32 215.4 1027.46 214.6 1030.92 213C1034.39 211.4 1036.99 208.8 1038.72 205.2H1066.92C1063.59 215.067 1057.86 222.867 1049.72 228.6C1041.72 234.2 1031.39 237 1018.72 237ZM1085.57 235V133H1114.97V157H1115.57V235H1085.57ZM1115.57 181.8L1112.97 157.6C1115.37 148.933 1119.3 142.333 1124.77 137.8C1130.24 133.267 1137.04 131 1145.17 131C1147.7 131 1149.57 131.267 1150.77 131.8V159.8C1150.1 159.533 1149.17 159.4 1147.97 159.4C1146.77 159.267 1145.3 159.2 1143.57 159.2C1133.97 159.2 1126.9 160.933 1122.37 164.4C1117.84 167.733 1115.57 173.533 1115.57 181.8ZM1174.17 276L1202.37 213.6L1207.57 205L1233.97 133H1265.97L1204.17 276H1174.17ZM1195.77 233L1156.57 133H1188.97L1221.17 224.2L1195.77 233Z" fill="black"/>
<path fill-rule="evenodd" clip-rule="evenodd" d="M23.7867 301.187C47.6026 324.997 85.8855 324.997 162.471 324.997C239.066 324.997 277.358 324.997 301.145 301.187C324.951 277.417 324.951 239.099 324.951 162.493C324.951 85.8878 324.951 47.5898 301.145 23.79C277.378 0 239.066 0 162.471 0C85.8757 0 47.5831 0 23.7867 23.79C0 47.6093 0 85.8975 0 162.493C0 239.099 0 277.397 23.7867 301.187ZM121.858 109.678C111.416 109.678 101.208 112.775 92.5256 118.576C83.8431 124.378 77.0758 132.625 73.0793 142.274C69.0828 151.922 68.0367 162.539 70.0731 172.782C72.1096 183.025 77.1372 192.434 84.5202 199.82C91.9033 207.205 101.31 212.235 111.551 214.274C121.793 216.313 132.408 215.268 142.056 211.273C151.704 207.278 159.951 200.511 165.754 191.828C171.556 183.146 174.655 172.937 174.657 162.493C174.657 159.261 175.94 156.161 178.226 153.876C180.511 151.59 183.61 150.306 186.842 150.306C190.074 150.306 193.174 151.59 195.459 153.876C197.744 156.161 199.028 159.261 199.028 162.493C199.03 177.761 194.505 192.687 186.025 205.382C177.545 218.078 165.491 227.973 151.388 233.816C137.285 239.66 121.766 241.189 106.794 238.211C91.8212 235.233 78.0681 227.881 67.2737 217.085C56.4793 206.289 49.1284 192.534 46.1508 177.56C43.1731 162.586 44.7023 147.064 50.5451 132.959C56.3878 118.854 66.2817 106.799 78.9754 98.3174C91.669 89.8363 106.592 85.3106 121.858 85.3125C125.09 85.3125 128.189 86.5965 130.475 88.8821C132.76 91.1677 134.044 94.2677 134.044 97.5C134.044 100.732 132.76 103.832 130.475 106.118C128.189 108.403 125.09 109.678 121.858 109.678ZM255.902 162.493C255.902 169.429 254.536 176.297 251.882 182.705C249.228 189.113 245.338 194.935 240.434 199.84C235.531 204.744 229.709 208.635 223.302 211.289C216.895 213.943 210.028 215.309 203.093 215.309C199.861 215.309 196.762 216.593 194.477 218.879C192.191 221.164 190.907 224.264 190.907 227.497C190.907 230.729 192.191 233.829 194.477 236.115C196.762 238.4 199.861 239.684 203.093 239.684C218.358 239.684 233.28 235.157 245.972 226.675C258.664 218.193 268.557 206.138 274.398 192.033C280.24 177.928 281.768 162.408 278.79 147.434C275.812 132.461 268.462 118.707 257.668 107.911C246.874 97.1161 233.122 89.7644 218.15 86.7859C203.179 83.8075 187.661 85.3362 173.558 91.1786C159.455 97.0209 147.401 106.915 138.921 119.609C130.44 132.303 125.913 147.227 125.913 162.493C125.913 165.726 127.197 168.826 129.482 171.111C131.768 173.397 134.867 174.681 138.099 174.681C141.331 174.681 144.431 173.397 146.716 171.111C149.001 168.826 150.285 165.726 150.285 162.493C150.285 148.486 155.849 135.052 165.752 125.147C175.656 115.242 189.088 109.678 203.093 109.678C217.099 109.678 230.531 115.242 240.434 125.147C250.338 135.052 255.902 148.486 255.902 162.493Z" fill="#633CFF"/>
</svg>
