<svg width="309" height="633" viewBox="0 0 309 633" fill="none" xmlns="http://www.w3.org/2000/svg">
<path d="M1 54.5849C1 24.991 25.0313 1 54.6748 1H254.325C283.969 1 308 24.991 308 54.5849V578.415C308 608.009 283.969 632 254.325 632H54.6748C25.0313 632 1 608.009 1 578.415V54.5849Z" stroke="#333333"/>
<path d="M12.0359 55.5863C12.0359 30.9702 32.024 11.0156 56.6813 11.0156H80.7597C87.1315 11.0156 92.2973 16.1728 92.2973 22.5339C92.2973 30.5546 98.8105 37.0569 106.845 37.0569H202.155C210.189 37.0569 216.703 30.5546 216.703 22.5339C216.703 16.1728 221.868 11.0156 228.24 11.0156H252.319C276.976 11.0156 296.964 30.9702 296.964 55.5863V577.413C296.964 602.029 276.976 621.984 252.319 621.984H56.6813C32.024 621.984 12.0359 602.029 12.0359 577.413V55.5863Z" stroke="#333333"/>
</svg>
